<!--?xml version="1.0" standalone="no"?-->
              <svg id="sw-js-blob-svg" viewBox="0 0 100 100" xmlns="http://www.w3.org/2000/svg" version="1.1">
                    <defs> 
                        <linearGradient id="sw-gradient" x1="0" x2="1" y1="1" y2="0">
                            <stop id="stop1" stop-color="rgba(19, 205, 145, 1)" offset="0%"></stop>
                            <stop id="stop2" stop-color="rgba(23, 220, 138, 1)" offset="100%"></stop>
                        </linearGradient>
                    </defs>
                <path fill="url(#sw-gradient)" d="M21.2,-31.4C27.8,-28.8,33.5,-23.4,34.4,-17C35.2,-10.7,31.1,-3.4,30.9,5C30.6,13.5,34.1,23,30.8,26.3C27.4,29.6,17.2,26.6,10,24.1C2.9,21.6,-1.1,19.6,-7.7,20.4C-14.3,21.1,-23.4,24.7,-27.3,22.4C-31.3,20.2,-30,12.2,-30,5C-29.9,-2.1,-31,-8.4,-28.8,-13.1C-26.6,-17.9,-21.1,-21.1,-15.8,-24.2C-10.4,-27.4,-5.2,-30.5,1.1,-32.1C7.3,-33.8,14.7,-34,21.2,-31.4Z" width="100%" height="100%" transform="translate(50 50)" stroke-width="0" style="transition: all 0.3s ease 0s;" stroke="url(#sw-gradient)"></path>
              </svg>